<svg id="Camada_1" data-name="Camada 1" xmlns="http://www.w3.org/2000/svg" viewBox="0 0 383.12 75.82"><defs><style>.cls-1{fill:#fff;}.cls-2{fill:#ff5c5c;}</style></defs><title>bv_line</title><path class="cls-1" d="M473.77,425V359.43q0-2.22,10.7-2.22t10.71,2.22v51.66h16.24c1.26,0,2.14,1.66,2.63,5a38.5,38.5,0,0,1,.32,5,43.44,43.44,0,0,1-.32,5.16q-.84,5.07-2.74,5.07H478.83a4.34,4.34,0,0,1-3.69-1.9A7.25,7.25,0,0,1,473.77,425Z" transform="translate(-473.77 -356.47)"/><path class="cls-1" d="M555,386.74q2,0,2,7.38a33.85,33.85,0,0,1-.48,5.22q-.47,3-1.74,3H541.36v10.55h19.4c1.2,0,2,1.54,2.43,4.64a27.44,27.44,0,0,1,.32,4.27,34.38,34.38,0,0,1-.64,5.85c-.42,2.39-1.12,3.59-2.11,3.59H524.7q-4,0-4-3.27V360.16c0-1.82.81-2.74,2.43-2.74h37.75c1.48,0,2.21,3.11,2.21,9.33s-.73,9.34-2.21,9.34H541.36v10.65Z" transform="translate(-473.77 -356.47)"/><path class="cls-1" d="M622.24,431.45q-9.18,0-9.91-3l-3.48-13.6H592.08L589,428q-.63,3.27-10.12,3.27a35.63,35.63,0,0,1-7.49-.58c-1.61-.39-2.42-.69-2.42-.9l18.66-71.39q0-.84,14.45-.84t14.45.84l18.24,71.5c0,.49-1.62.87-4.85,1.15S624.14,431.45,622.24,431.45ZM594.72,401.5h11.07L601,379.67h-.63Z" transform="translate(-473.77 -356.47)"/><path class="cls-1" d="M641.75,426.38V363.12a6.17,6.17,0,0,1,1.32-4.17,4.29,4.29,0,0,1,3.42-1.53H664.1q16.77,0,25.47,8.44t8.7,26.57q0,38.81-33.11,38.81h-18Q641.74,431.24,641.75,426.38ZM662,377.46V409a7.38,7.38,0,0,0,.32,2.79c.21.39.84.58,1.9.58A10,10,0,0,0,673,408q3-4.32,3-14.4t-3.11-13.12q-3.12-3.06-9.86-3.06Z" transform="translate(-473.77 -356.47)"/><path class="cls-2" d="M745.54,429.55q0,2.11-10.44,2.11t-10.44-2.11V376.61H712c-1.2,0-2-1.61-2.53-4.85a35.34,35.34,0,0,1,0-9.49q.74-4.84,2.53-4.85h45.87q1.79,0,2.53,4.85a36.47,36.47,0,0,1,0,9.49c-.5,3.24-1.34,4.85-2.53,4.85H745.54Z" transform="translate(-473.77 -356.47)"/><path class="cls-2" d="M798.1,432.29q-14.8,0-24.14-9.7t-9.34-28.31q0-18.61,9.44-28.21t24.36-9.6q14.93,0,24.09,9.44t9.18,28.58q0,19.14-9.39,28.47T798.1,432.29Zm.06-55.57q-5.07,0-8.49,4.64t-3.43,13q0,8.39,3.27,12.87a10.49,10.49,0,0,0,17.24-.06q3.32-4.53,3.32-13t-3.42-13A10.31,10.31,0,0,0,798.16,376.72Z" transform="translate(-473.77 -356.47)"/><path class="cls-2" d="M856.89,431.55q0,.74-10,.74t-10-.63v-19c0-.64,3.32-.95,10-.95s10,.17,10,.52Z" transform="translate(-473.77 -356.47)"/></svg>