<svg id="Camada_1" data-name="Camada 1" xmlns="http://www.w3.org/2000/svg" viewBox="0 0 274.99 122.63"><defs><style>.cls-1{fill:#b5b5b5;}</style></defs><title>403</title><path class="cls-1" d="M655.19,410.33V392.22a36.09,36.09,0,0,0-36.1-36.09h0A36.09,36.09,0,0,0,583,392.22v17.32a43.87,43.87,0,1,0,72.19.79ZM599.5,391.66a19.21,19.21,0,0,1,19.22-19.22h.75a19.22,19.22,0,0,1,19.22,19.22v4.1a43.88,43.88,0,0,0-39.19-.28Zm19.31,64.22a21,21,0,1,1,21-21A21,21,0,0,1,618.81,455.88Z" transform="translate(-479.69 -356.13)"/><polygon class="cls-1" points="83.25 76.88 69.38 76.88 69.38 56.06 46.69 56.06 46.69 76.88 25.5 76.88 55.88 18.75 30.38 18.75 0 76.88 0 95.25 46.69 95.25 46.69 117.75 69.38 117.75 69.38 95.25 83.25 95.25 83.25 76.88"/><circle class="cls-1" cx="139.13" cy="78.75" r="9.75"/><path class="cls-1" d="M754.47,438.91c-2.34-23.35-29.22-22.41-29.22-22.41l25-22.75V374.88h-64.5v18.87H721.5L700.25,416.5v14.16h18.22c11,1.4,12.28,7.78,12.37,12.09s-1.21,12.38-15.84,13-24.37-11.53-24.37-11.53l-9.94,18.09c13.87,10.22,26.81,12.75,42.75,12S756.81,462.25,754.47,438.91Z" transform="translate(-479.69 -356.13)"/></svg>